<svg width="120" height="100" viewBox="0 0 120 100" fill="none" xmlns="http://www.w3.org/2000/svg">
<g id="triangles" clip-path="url(#clip0)">
<g id="lightGroup">
<path id="light1" d="M47.7006 50.2362C49.1101 50.9897 49.1101 53.0103 47.7006 53.7638L13.4429 72.0774C12.1106 72.7896 10.5 71.8243 10.5 70.3136L10.5 33.6864C10.5 32.1757 12.1106 31.2104 13.4429 31.9226L47.7006 50.2362Z" fill="#54DBD3" fill-opacity="0.7"/>
</g>
<g id="darkGroup">
<path id="dark1" d="M68.7006 50.2362C70.1101 50.9897 70.1101 53.0103 68.7006 53.7638L34.4429 72.0774C33.1106 72.7896 31.5 71.8243 31.5 70.3136L31.5 33.6864C31.5 32.1757 33.1106 31.2104 34.4429 31.9226L68.7006 50.2362Z" fill="#6B69D8" fill-opacity="0.7"/>
<path id="dark2" d="M47.7006 50.2362C49.1101 50.9897 49.1101 53.0103 47.7006 53.7638L13.4429 72.0774C12.1106 72.7896 10.5 71.8243 10.5 70.3136L10.5 33.6864C10.5 32.1757 12.1106 31.2104 13.4429 31.9226L47.7006 50.2362Z" fill="#6B69D8" fill-opacity="0.7"/>
</g>
</g>
<defs>
<clipPath id="clip0">
<rect width="120" height="100" fill="white"/>
</clipPath>
</defs>
</svg>
